<svg xmlns="http://www.w3.org/2000/svg" xmlns:xlink="http://www.w3.org/1999/xlink" width="500" zoomAndPan="magnify" viewBox="0 0 375 374.999991" height="500" preserveAspectRatio="xMidYMid meet" version="1.0"><defs><g/></defs><g fill="#000e4d" fill-opacity="1"><g transform="translate(101.736049, 252.053112)"><g><path d="M 16.859375 -20.953125 L 16.859375 -16.734375 L 11.015625 -16.734375 L 11.015625 0 L 6.46875 0 L 6.46875 -16.734375 L 0.65625 -16.734375 L 0.65625 -20.953125 Z M 16.859375 -20.953125 "/></g></g></g><g fill="#000e4d" fill-opacity="1"><g transform="translate(125.202695, 252.053112)"><g><path d="M 6.953125 -4.21875 L 15.296875 -4.21875 L 15.296875 0 L 2.390625 0 L 2.390625 -20.953125 L 14.96875 -20.953125 L 14.96875 -16.765625 L 6.953125 -16.765625 L 6.953125 -12.640625 L 14.1875 -12.640625 L 14.1875 -8.53125 L 6.953125 -8.53125 Z M 6.953125 -4.21875 "/></g></g></g><g fill="#000e4d" fill-opacity="1"><g transform="translate(147.921104, 252.053112)"><g><path d="M 12 0.453125 C 10.46875 0.453125 9.039062 0.175781 7.71875 -0.375 C 6.40625 -0.925781 5.257812 -1.691406 4.28125 -2.671875 C 3.300781 -3.660156 2.539062 -4.816406 2 -6.140625 C 1.46875 -7.472656 1.203125 -8.910156 1.203125 -10.453125 C 1.203125 -12.003906 1.46875 -13.445312 2 -14.78125 C 2.539062 -16.125 3.300781 -17.289062 4.28125 -18.28125 C 5.257812 -19.269531 6.40625 -20.035156 7.71875 -20.578125 C 9.039062 -21.128906 10.46875 -21.40625 12 -21.40625 C 13.695312 -21.40625 15.253906 -21.054688 16.671875 -20.359375 C 18.085938 -19.660156 19.273438 -18.679688 20.234375 -17.421875 C 21.191406 -16.160156 21.832031 -14.703125 22.15625 -13.046875 L 17.609375 -13.046875 C 17.179688 -14.285156 16.46875 -15.269531 15.46875 -16 C 14.476562 -16.726562 13.320312 -17.09375 12 -17.09375 C 10.820312 -17.09375 9.765625 -16.796875 8.828125 -16.203125 C 7.890625 -15.617188 7.144531 -14.828125 6.59375 -13.828125 C 6.050781 -12.828125 5.78125 -11.703125 5.78125 -10.453125 C 5.78125 -9.191406 6.050781 -8.066406 6.59375 -7.078125 C 7.144531 -6.085938 7.890625 -5.300781 8.828125 -4.71875 C 9.765625 -4.144531 10.820312 -3.859375 12 -3.859375 C 13.382812 -3.859375 14.570312 -4.25 15.5625 -5.03125 C 16.5625 -5.8125 17.253906 -6.867188 17.640625 -8.203125 L 22.21875 -8.203125 C 21.894531 -6.460938 21.257812 -4.941406 20.3125 -3.640625 C 19.363281 -2.347656 18.175781 -1.34375 16.75 -0.625 C 15.320312 0.09375 13.738281 0.453125 12 0.453125 Z M 12 0.453125 "/></g></g></g><g fill="#000e4d" fill-opacity="1"><g transform="translate(176.984609, 252.053112)"><g><path d="M 14.8125 -20.953125 L 19.34375 -20.953125 L 19.34375 0 L 14.8125 0 L 14.8125 -8.65625 L 6.953125 -8.65625 L 6.953125 0 L 2.390625 0 L 2.390625 -20.953125 L 6.953125 -20.953125 L 6.953125 -12.875 L 14.8125 -12.875 Z M 14.8125 -20.953125 "/></g></g></g><g fill="#000e4d" fill-opacity="1"><g transform="translate(204.731209, 252.053112)"><g><path d="M 15.6875 -20.953125 L 20.125 -20.953125 L 20.125 0 L 16.34375 0 L 6.859375 -13.078125 L 6.859375 0 L 2.390625 0 L 2.390625 -20.953125 L 6.5 -20.953125 L 15.6875 -8.171875 Z M 15.6875 -20.953125 "/></g></g></g><g fill="#000e4d" fill-opacity="1"><g transform="translate(233.226045, 252.053112)"><g><path d="M 12.328125 0.453125 C 10.734375 0.453125 9.257812 0.175781 7.90625 -0.375 C 6.550781 -0.925781 5.367188 -1.691406 4.359375 -2.671875 C 3.347656 -3.660156 2.5625 -4.816406 2 -6.140625 C 1.445312 -7.472656 1.171875 -8.921875 1.171875 -10.484375 C 1.171875 -12.035156 1.445312 -13.472656 2 -14.796875 C 2.5625 -16.128906 3.347656 -17.289062 4.359375 -18.28125 C 5.367188 -19.269531 6.550781 -20.035156 7.90625 -20.578125 C 9.257812 -21.128906 10.734375 -21.40625 12.328125 -21.40625 C 13.929688 -21.40625 15.410156 -21.128906 16.765625 -20.578125 C 18.117188 -20.035156 19.296875 -19.269531 20.296875 -18.28125 C 21.296875 -17.289062 22.070312 -16.128906 22.625 -14.796875 C 23.1875 -13.472656 23.46875 -12.035156 23.46875 -10.484375 C 23.46875 -8.921875 23.1875 -7.472656 22.625 -6.140625 C 22.070312 -4.816406 21.296875 -3.660156 20.296875 -2.671875 C 19.296875 -1.691406 18.117188 -0.925781 16.765625 -0.375 C 15.410156 0.175781 13.929688 0.453125 12.328125 0.453125 Z M 12.328125 -3.828125 C 13.585938 -3.828125 14.710938 -4.113281 15.703125 -4.6875 C 16.691406 -5.269531 17.46875 -6.0625 18.03125 -7.0625 C 18.601562 -8.0625 18.890625 -9.203125 18.890625 -10.484375 C 18.890625 -11.734375 18.601562 -12.863281 18.03125 -13.875 C 17.46875 -14.882812 16.691406 -15.675781 15.703125 -16.25 C 14.710938 -16.832031 13.585938 -17.125 12.328125 -17.125 C 11.097656 -17.125 9.984375 -16.832031 8.984375 -16.25 C 7.984375 -15.675781 7.191406 -14.882812 6.609375 -13.875 C 6.035156 -12.863281 5.75 -11.734375 5.75 -10.484375 C 5.75 -9.222656 6.035156 -8.085938 6.609375 -7.078125 C 7.191406 -6.066406 7.984375 -5.269531 8.984375 -4.6875 C 9.984375 -4.113281 11.097656 -3.828125 12.328125 -3.828125 Z M 12.328125 -3.828125 "/></g></g></g><g fill="#000e4d" fill-opacity="1"><g transform="translate(263.84589, 252.053112)"><g><path d="M 6.953125 -4.21875 L 14.96875 -4.21875 L 14.96875 0 L 2.390625 0 L 2.390625 -20.953125 L 6.953125 -20.953125 Z M 6.953125 -4.21875 "/></g></g></g><g fill="#000e4d" fill-opacity="1"><g transform="translate(285.4569, 252.053112)"><g><path d="M 12.328125 0.453125 C 10.734375 0.453125 9.257812 0.175781 7.90625 -0.375 C 6.550781 -0.925781 5.367188 -1.691406 4.359375 -2.671875 C 3.347656 -3.660156 2.5625 -4.816406 2 -6.140625 C 1.445312 -7.472656 1.171875 -8.921875 1.171875 -10.484375 C 1.171875 -12.035156 1.445312 -13.472656 2 -14.796875 C 2.5625 -16.128906 3.347656 -17.289062 4.359375 -18.28125 C 5.367188 -19.269531 6.550781 -20.035156 7.90625 -20.578125 C 9.257812 -21.128906 10.734375 -21.40625 12.328125 -21.40625 C 13.929688 -21.40625 15.410156 -21.128906 16.765625 -20.578125 C 18.117188 -20.035156 19.296875 -19.269531 20.296875 -18.28125 C 21.296875 -17.289062 22.070312 -16.128906 22.625 -14.796875 C 23.1875 -13.472656 23.46875 -12.035156 23.46875 -10.484375 C 23.46875 -8.921875 23.1875 -7.472656 22.625 -6.140625 C 22.070312 -4.816406 21.296875 -3.660156 20.296875 -2.671875 C 19.296875 -1.691406 18.117188 -0.925781 16.765625 -0.375 C 15.410156 0.175781 13.929688 0.453125 12.328125 0.453125 Z M 12.328125 -3.828125 C 13.585938 -3.828125 14.710938 -4.113281 15.703125 -4.6875 C 16.691406 -5.269531 17.46875 -6.0625 18.03125 -7.0625 C 18.601562 -8.0625 18.890625 -9.203125 18.890625 -10.484375 C 18.890625 -11.734375 18.601562 -12.863281 18.03125 -13.875 C 17.46875 -14.882812 16.691406 -15.675781 15.703125 -16.25 C 14.710938 -16.832031 13.585938 -17.125 12.328125 -17.125 C 11.097656 -17.125 9.984375 -16.832031 8.984375 -16.25 C 7.984375 -15.675781 7.191406 -14.882812 6.609375 -13.875 C 6.035156 -12.863281 5.75 -11.734375 5.75 -10.484375 C 5.75 -9.222656 6.035156 -8.085938 6.609375 -7.078125 C 7.191406 -6.066406 7.984375 -5.269531 8.984375 -4.6875 C 9.984375 -4.113281 11.097656 -3.828125 12.328125 -3.828125 Z M 12.328125 -3.828125 "/></g></g></g><g fill="#000e4d" fill-opacity="1"><g transform="translate(316.076733, 252.053112)"><g><path d="M 11.578125 -10.953125 L 22.75 -10.953125 C 22.726562 -9.296875 22.457031 -7.773438 21.9375 -6.390625 C 21.425781 -5.003906 20.695312 -3.800781 19.75 -2.78125 C 18.800781 -1.757812 17.671875 -0.960938 16.359375 -0.390625 C 15.054688 0.171875 13.613281 0.453125 12.03125 0.453125 C 10.5 0.453125 9.070312 0.179688 7.75 -0.359375 C 6.4375 -0.898438 5.285156 -1.65625 4.296875 -2.625 C 3.304688 -3.601562 2.539062 -4.757812 2 -6.09375 C 1.46875 -7.4375 1.203125 -8.890625 1.203125 -10.453125 C 1.203125 -12.023438 1.460938 -13.472656 1.984375 -14.796875 C 2.515625 -16.128906 3.265625 -17.289062 4.234375 -18.28125 C 5.203125 -19.269531 6.34375 -20.035156 7.65625 -20.578125 C 8.976562 -21.128906 10.40625 -21.40625 11.9375 -21.40625 C 13.675781 -21.40625 15.285156 -21.066406 16.765625 -20.390625 C 18.242188 -19.710938 19.476562 -18.773438 20.46875 -17.578125 C 21.46875 -16.378906 22.128906 -14.988281 22.453125 -13.40625 L 17.78125 -13.40625 C 17.34375 -14.550781 16.601562 -15.453125 15.5625 -16.109375 C 14.53125 -16.765625 13.351562 -17.09375 12.03125 -17.09375 C 10.789062 -17.09375 9.703125 -16.804688 8.765625 -16.234375 C 7.828125 -15.671875 7.09375 -14.894531 6.5625 -13.90625 C 6.039062 -12.914062 5.78125 -11.765625 5.78125 -10.453125 C 5.78125 -9.148438 6.035156 -8.003906 6.546875 -7.015625 C 7.066406 -6.023438 7.796875 -5.25 8.734375 -4.6875 C 9.679688 -4.132812 10.78125 -3.859375 12.03125 -3.859375 C 13.394531 -3.859375 14.613281 -4.1875 15.6875 -4.84375 C 16.757812 -5.507812 17.488281 -6.378906 17.875 -7.453125 L 11.578125 -7.453125 Z M 11.578125 -10.953125 "/></g></g></g><g fill="#000e4d" fill-opacity="1"><g transform="translate(345.918436, 252.053112)"><g><path d="M 19.84375 -20.953125 L 12.484375 -8.46875 L 12.484375 0 L 7.8125 0 L 7.8125 -8.5 L 0.515625 -20.953125 L 5.328125 -20.953125 L 10.171875 -12.578125 L 15.03125 -20.953125 Z M 19.84375 -20.953125 "/></g></g></g><g fill="#000e4d" fill-opacity="1"><g transform="translate(157.931054, 274.213897)"><g><path d="M 4.328125 0.15625 C 3.773438 0.15625 3.257812 0.0546875 2.78125 -0.140625 C 2.3125 -0.335938 1.898438 -0.613281 1.546875 -0.96875 C 1.191406 -1.320312 0.914062 -1.738281 0.71875 -2.21875 C 0.53125 -2.695312 0.4375 -3.210938 0.4375 -3.765625 C 0.4375 -4.328125 0.53125 -4.847656 0.71875 -5.328125 C 0.914062 -5.816406 1.191406 -6.238281 1.546875 -6.59375 C 1.898438 -6.945312 2.3125 -7.222656 2.78125 -7.421875 C 3.257812 -7.617188 3.773438 -7.71875 4.328125 -7.71875 C 4.941406 -7.71875 5.503906 -7.59375 6.015625 -7.34375 C 6.523438 -7.09375 6.953125 -6.738281 7.296875 -6.28125 C 7.640625 -5.832031 7.867188 -5.304688 7.984375 -4.703125 L 6.34375 -4.703125 C 6.195312 -5.148438 5.941406 -5.503906 5.578125 -5.765625 C 5.222656 -6.035156 4.804688 -6.171875 4.328125 -6.171875 C 3.898438 -6.171875 3.515625 -6.0625 3.171875 -5.84375 C 2.835938 -5.632812 2.570312 -5.347656 2.375 -4.984375 C 2.175781 -4.628906 2.078125 -4.222656 2.078125 -3.765625 C 2.078125 -3.316406 2.175781 -2.910156 2.375 -2.546875 C 2.570312 -2.191406 2.835938 -1.910156 3.171875 -1.703125 C 3.515625 -1.492188 3.898438 -1.390625 4.328125 -1.390625 C 4.828125 -1.390625 5.253906 -1.53125 5.609375 -1.8125 C 5.972656 -2.09375 6.222656 -2.472656 6.359375 -2.953125 L 8.015625 -2.953125 C 7.898438 -2.328125 7.671875 -1.78125 7.328125 -1.3125 C 6.984375 -0.84375 6.550781 -0.476562 6.03125 -0.21875 C 5.519531 0.03125 4.953125 0.15625 4.328125 0.15625 Z M 4.328125 0.15625 "/></g></g></g><g fill="#000e4d" fill-opacity="1"><g transform="translate(174.881996, 274.213897)"><g><path d="M 4.453125 0.15625 C 3.867188 0.15625 3.332031 0.0546875 2.84375 -0.140625 C 2.351562 -0.335938 1.925781 -0.613281 1.5625 -0.96875 C 1.207031 -1.320312 0.925781 -1.738281 0.71875 -2.21875 C 0.519531 -2.695312 0.421875 -3.21875 0.421875 -3.78125 C 0.421875 -4.34375 0.519531 -4.863281 0.71875 -5.34375 C 0.925781 -5.820312 1.207031 -6.238281 1.5625 -6.59375 C 1.925781 -6.945312 2.351562 -7.222656 2.84375 -7.421875 C 3.332031 -7.617188 3.867188 -7.71875 4.453125 -7.71875 C 5.023438 -7.71875 5.554688 -7.617188 6.046875 -7.421875 C 6.535156 -7.222656 6.957031 -6.945312 7.3125 -6.59375 C 7.675781 -6.238281 7.957031 -5.820312 8.15625 -5.34375 C 8.363281 -4.863281 8.46875 -4.34375 8.46875 -3.78125 C 8.46875 -3.21875 8.363281 -2.695312 8.15625 -2.21875 C 7.957031 -1.738281 7.675781 -1.320312 7.3125 -0.96875 C 6.957031 -0.613281 6.535156 -0.335938 6.046875 -0.140625 C 5.554688 0.0546875 5.023438 0.15625 4.453125 0.15625 Z M 4.453125 -1.375 C 4.898438 -1.375 5.300781 -1.476562 5.65625 -1.6875 C 6.019531 -1.90625 6.300781 -2.191406 6.5 -2.546875 C 6.707031 -2.910156 6.8125 -3.320312 6.8125 -3.78125 C 6.8125 -4.226562 6.707031 -4.632812 6.5 -5 C 6.300781 -5.363281 6.019531 -5.648438 5.65625 -5.859375 C 5.300781 -6.066406 4.898438 -6.171875 4.453125 -6.171875 C 4.003906 -6.171875 3.597656 -6.066406 3.234375 -5.859375 C 2.878906 -5.648438 2.597656 -5.363281 2.390625 -5 C 2.179688 -4.632812 2.078125 -4.226562 2.078125 -3.78125 C 2.078125 -3.320312 2.179688 -2.910156 2.390625 -2.546875 C 2.597656 -2.191406 2.878906 -1.90625 3.234375 -1.6875 C 3.597656 -1.476562 4.003906 -1.375 4.453125 -1.375 Z M 4.453125 -1.375 "/></g></g></g><g fill="#000e4d" fill-opacity="1"><g transform="translate(192.393561, 274.213897)"><g><path d="M 5.65625 -7.5625 L 7.25 -7.5625 L 7.25 0 L 5.890625 0 L 2.46875 -4.71875 L 2.46875 0 L 0.859375 0 L 0.859375 -7.5625 L 2.34375 -7.5625 L 5.65625 -2.953125 Z M 5.65625 -7.5625 "/></g></g></g><g fill="#000e4d" fill-opacity="1"><g transform="translate(209.139665, 274.213897)"><g><path d="M 5.65625 -7.5625 L 7.25 -7.5625 L 7.25 0 L 5.890625 0 L 2.46875 -4.71875 L 2.46875 0 L 0.859375 0 L 0.859375 -7.5625 L 2.34375 -7.5625 L 5.65625 -2.953125 Z M 5.65625 -7.5625 "/></g></g></g><g fill="#000e4d" fill-opacity="1"><g transform="translate(225.885769, 274.213897)"><g><path d="M 2.5 -1.515625 L 5.515625 -1.515625 L 5.515625 0 L 0.859375 0 L 0.859375 -7.5625 L 5.390625 -7.5625 L 5.390625 -6.046875 L 2.5 -6.046875 L 2.5 -4.5625 L 5.125 -4.5625 L 5.125 -3.078125 L 2.5 -3.078125 Z M 2.5 -1.515625 "/></g></g></g><g fill="#000e4d" fill-opacity="1"><g transform="translate(240.551097, 274.213897)"><g><path d="M 4.328125 0.15625 C 3.773438 0.15625 3.257812 0.0546875 2.78125 -0.140625 C 2.3125 -0.335938 1.898438 -0.613281 1.546875 -0.96875 C 1.191406 -1.320312 0.914062 -1.738281 0.71875 -2.21875 C 0.53125 -2.695312 0.4375 -3.210938 0.4375 -3.765625 C 0.4375 -4.328125 0.53125 -4.847656 0.71875 -5.328125 C 0.914062 -5.816406 1.191406 -6.238281 1.546875 -6.59375 C 1.898438 -6.945312 2.3125 -7.222656 2.78125 -7.421875 C 3.257812 -7.617188 3.773438 -7.71875 4.328125 -7.71875 C 4.941406 -7.71875 5.503906 -7.59375 6.015625 -7.34375 C 6.523438 -7.09375 6.953125 -6.738281 7.296875 -6.28125 C 7.640625 -5.832031 7.867188 -5.304688 7.984375 -4.703125 L 6.34375 -4.703125 C 6.195312 -5.148438 5.941406 -5.503906 5.578125 -5.765625 C 5.222656 -6.035156 4.804688 -6.171875 4.328125 -6.171875 C 3.898438 -6.171875 3.515625 -6.0625 3.171875 -5.84375 C 2.835938 -5.632812 2.570312 -5.347656 2.375 -4.984375 C 2.175781 -4.628906 2.078125 -4.222656 2.078125 -3.765625 C 2.078125 -3.316406 2.175781 -2.910156 2.375 -2.546875 C 2.570312 -2.191406 2.835938 -1.910156 3.171875 -1.703125 C 3.515625 -1.492188 3.898438 -1.390625 4.328125 -1.390625 C 4.828125 -1.390625 5.253906 -1.53125 5.609375 -1.8125 C 5.972656 -2.09375 6.222656 -2.472656 6.359375 -2.953125 L 8.015625 -2.953125 C 7.898438 -2.328125 7.671875 -1.78125 7.328125 -1.3125 C 6.984375 -0.84375 6.550781 -0.476562 6.03125 -0.21875 C 5.519531 0.03125 4.953125 0.15625 4.328125 0.15625 Z M 4.328125 0.15625 "/></g></g></g><g fill="#000e4d" fill-opacity="1"><g transform="translate(257.502039, 274.213897)"><g><path d="M 6.078125 -7.5625 L 6.078125 -6.03125 L 3.96875 -6.03125 L 3.96875 0 L 2.328125 0 L 2.328125 -6.03125 L 0.234375 -6.03125 L 0.234375 -7.5625 Z M 6.078125 -7.5625 "/></g></g></g><g fill="#000e4d" fill-opacity="1"><g transform="translate(272.436898, 274.213897)"><g><path d="M 0.859375 0 L 0.859375 -7.5625 L 2.5 -7.5625 L 2.5 0 Z M 0.859375 0 "/></g></g></g><g fill="#000e4d" fill-opacity="1"><g transform="translate(284.439255, 274.213897)"><g><path d="M 4.453125 0.15625 C 3.867188 0.15625 3.332031 0.0546875 2.84375 -0.140625 C 2.351562 -0.335938 1.925781 -0.613281 1.5625 -0.96875 C 1.207031 -1.320312 0.925781 -1.738281 0.71875 -2.21875 C 0.519531 -2.695312 0.421875 -3.21875 0.421875 -3.78125 C 0.421875 -4.34375 0.519531 -4.863281 0.71875 -5.34375 C 0.925781 -5.820312 1.207031 -6.238281 1.5625 -6.59375 C 1.925781 -6.945312 2.351562 -7.222656 2.84375 -7.421875 C 3.332031 -7.617188 3.867188 -7.71875 4.453125 -7.71875 C 5.023438 -7.71875 5.554688 -7.617188 6.046875 -7.421875 C 6.535156 -7.222656 6.957031 -6.945312 7.3125 -6.59375 C 7.675781 -6.238281 7.957031 -5.820312 8.15625 -5.34375 C 8.363281 -4.863281 8.46875 -4.34375 8.46875 -3.78125 C 8.46875 -3.21875 8.363281 -2.695312 8.15625 -2.21875 C 7.957031 -1.738281 7.675781 -1.320312 7.3125 -0.96875 C 6.957031 -0.613281 6.535156 -0.335938 6.046875 -0.140625 C 5.554688 0.0546875 5.023438 0.15625 4.453125 0.15625 Z M 4.453125 -1.375 C 4.898438 -1.375 5.300781 -1.476562 5.65625 -1.6875 C 6.019531 -1.90625 6.300781 -2.191406 6.5 -2.546875 C 6.707031 -2.910156 6.8125 -3.320312 6.8125 -3.78125 C 6.8125 -4.226562 6.707031 -4.632812 6.5 -5 C 6.300781 -5.363281 6.019531 -5.648438 5.65625 -5.859375 C 5.300781 -6.066406 4.898438 -6.171875 4.453125 -6.171875 C 4.003906 -6.171875 3.597656 -6.066406 3.234375 -5.859375 C 2.878906 -5.648438 2.597656 -5.363281 2.390625 -5 C 2.179688 -4.632812 2.078125 -4.226562 2.078125 -3.78125 C 2.078125 -3.320312 2.179688 -2.910156 2.390625 -2.546875 C 2.597656 -2.191406 2.878906 -1.90625 3.234375 -1.6875 C 3.597656 -1.476562 4.003906 -1.375 4.453125 -1.375 Z M 4.453125 -1.375 "/></g></g></g><g fill="#000e4d" fill-opacity="1"><g transform="translate(301.95082, 274.213897)"><g><path d="M 5.65625 -7.5625 L 7.25 -7.5625 L 7.25 0 L 5.890625 0 L 2.46875 -4.71875 L 2.46875 0 L 0.859375 0 L 0.859375 -7.5625 L 2.34375 -7.5625 L 5.65625 -2.953125 Z M 5.65625 -7.5625 "/></g></g></g><path fill="#ffde59" d="M 29.492188 230.96875 C 48.203125 178.9375 106.695312 217.699219 77.699219 257.761719 C 78.101562 258.832031 78.300781 260 78.300781 261.183594 C 78.300781 266.710938 73.84375 271.167969 68.320312 271.167969 C 62.792969 271.167969 58.335938 266.710938 58.335938 261.183594 C 58.335938 255.660156 62.792969 251.203125 68.320312 251.203125 C 68.886719 251.203125 69.4375 251.21875 69.972656 251.320312 C 86.378906 224.210938 55.78125 189.273438 33.464844 229.085938 C 32.113281 229.636719 30.777344 230.253906 29.492188 230.96875 Z M 29.492188 230.96875 " fill-opacity="1" fill-rule="nonzero"/><path fill="#ff3131" d="M 87.730469 235.894531 C 123.4375 278.109375 60.605469 309.410156 40.410156 264.273438 C 39.289062 264.070312 38.203125 263.671875 37.171875 263.085938 C 32.394531 260.316406 30.761719 254.222656 33.496094 249.449219 C 36.269531 244.675781 42.394531 243.039062 47.136719 245.777344 C 51.910156 248.53125 53.546875 254.640625 50.808594 259.414062 C 50.539062 259.914062 50.207031 260.347656 49.875 260.785156 C 65.148438 288.558594 110.71875 279.527344 87.382812 240.285156 C 87.582031 238.816406 87.699219 237.363281 87.730469 235.894531 Z M 87.730469 235.894531 " fill-opacity="1" fill-rule="nonzero"/><path fill="#000000" d="M 54.328125 283.886719 C -0.0546875 293.683594 4.253906 223.640625 53.429688 228.714844 C 54.179688 227.847656 55.03125 227.113281 56.082031 226.511719 C 60.855469 223.742188 66.984375 225.378906 69.71875 230.152344 C 72.492188 234.925781 70.855469 241.050781 66.082031 243.789062 C 61.308594 246.5625 55.179688 244.910156 52.445312 240.152344 C 52.144531 239.652344 51.925781 239.167969 51.726562 238.648438 C 20.027344 237.980469 5.070312 281.984375 50.707031 281.382812 C 51.875 282.285156 53.0625 283.117188 54.328125 283.886719 Z M 54.328125 283.886719 " fill-opacity="1" fill-rule="nonzero"/></svg>